<svg xmlns="http://www.w3.org/2000/svg" xmlns:xlink="http://www.w3.org/1999/xlink" width="1.931in" height="1.694in" viewBox="0 0 139 122"><defs><style>.a{fill:none;}.b{fill:#f78628;}.c{clip-path:url(#a);}.d{fill:#f4376d;}</style><clipPath id="a"><path class="a" d="M149,47v61H0V47Z"/></clipPath></defs><title>altariel</title><path class="b" d="M120,66.5a5.5,5.5,0,0,1-5.5,5.5h-25A5.5,5.5,0,0,1,84,66.5V59.78L71.03,72.75,87.89,89.61A5.5,5.5,0,0,1,84,99H58.5a5.5,5.5,0,0,1,0-11H70.72L59.61,76.89a5.2,5.2,0,0,1-.73-.91l-2.04-2.04L25.39,105.39a5.5,5.5,0,0,1-7.78-7.78L81.72,33.5,75,26.78,60.39,41.39a5.5,5.5,0,0,1-7.78-7.78l18.5-18.5a5.5,5.5,0,0,1,7.78,0L93.3,29.53a3.437,3.437,0,0,1,.27.27,4.136,4.136,0,0,1,.37.46,4.585,4.585,0,0,1,.33.52c.02.01.02.01.01.02a2.211,2.211,0,0,1,.18.34c.06.12.11.24.16.37a4.217,4.217,0,0,1,.28.98,2.629,2.629,0,0,1,.06.39,5.07,5.07,0,0,1,.04.68V61h19.5A5.5,5.5,0,0,1,120,66.5Z"/><path d="M93.39,29.61c.06.06.12.12.18.19a3.437,3.437,0,0,0-.27-.27Z"/><circle class="b" cx="110" cy="29" r="12"/><g class="c"><path class="d" d="M120,66.5a5.5,5.5,0,0,1-5.5,5.5h-25A5.5,5.5,0,0,1,84,66.5V59.78L71.03,72.75,87.89,89.61A5.5,5.5,0,0,1,84,99H58.5a5.5,5.5,0,0,1,0-11H70.72L59.61,76.89a5.2,5.2,0,0,1-.73-.91l-2.04-2.04L25.39,105.39a5.5,5.5,0,0,1-7.78-7.78L81.72,33.5,75,26.78,60.39,41.39a5.5,5.5,0,0,1-7.78-7.78l18.5-18.5a5.5,5.5,0,0,1,7.78,0L93.3,29.53a3.437,3.437,0,0,1,.27.27,4.136,4.136,0,0,1,.37.46,4.585,4.585,0,0,1,.33.52c.02.01.02.01.01.02a2.211,2.211,0,0,1,.18.34c.06.12.11.24.16.37a4.217,4.217,0,0,1,.28.98,2.629,2.629,0,0,1,.06.39,5.07,5.07,0,0,1,.04.68V61h19.5A5.5,5.5,0,0,1,120,66.5Z"/><path class="d" d="M93.39,29.61c.06.06.12.12.18.19a3.437,3.437,0,0,0-.27-.27Z"/><circle class="d" cx="109" cy="24" r="12"/></g></svg>