<svg xmlns="http://www.w3.org/2000/svg" xmlns:xlink="http://www.w3.org/1999/xlink" width="2.139in" height="2.319in" viewBox="0 0 154 167"><defs><style>.a{fill:none;}.b{font-size:38px;font-family:DINAlternate-Bold, DIN Alternate;font-weight:700;fill:white;}.c{letter-spacing:-0.035em;}.d{letter-spacing:-0.02em;}.e{fill:#dd6dff;}.f{clip-path:url(#a);}.g{fill:#a100e0; filter: drop-shadow(0px 3px 20px rgb(0, 0, 0));}</style><clipPath id="a"><path class="a" d="M160,50v61H11V50Z"/></clipPath></defs><title>altariel</title><text class="b" transform="translate(19.193 150.273)">Alt<tspan class="c" x="43.529" y="0">a</tspan><tspan x="61.199" y="0">r</tspan><tspan class="d" x="75.987" y="0">ie</tspan><tspan class="c" x="102.578" y="0">l</tspan></text><path class="e" d="M131,69.5a5.5,5.5,0,0,1-5.5,5.5h-25A5.5,5.5,0,0,1,95,69.5V62.78L82.03,75.75,98.89,92.61A5.5,5.5,0,0,1,95,102H69.5a5.5,5.5,0,0,1,0-11H81.72L70.61,79.89a5.2,5.2,0,0,1-.73-.91l-2.04-2.04L36.39,108.39a5.5,5.5,0,0,1-7.78-7.78L92.72,36.5,86,29.78,71.39,44.39a5.5,5.5,0,0,1-7.78-7.78l18.5-18.5a5.5,5.5,0,0,1,7.78,0L104.3,32.53a3.437,3.437,0,0,1,.27.27,4.136,4.136,0,0,1,.37.46,4.585,4.585,0,0,1,.33.52c.02.01.02.01.01.02a2.211,2.211,0,0,1,.18.34c.06.12.11.24.16.37a4.217,4.217,0,0,1,.28.98,2.629,2.629,0,0,1,.06.39,5.07,5.07,0,0,1,.04.68V64h19.5A5.5,5.5,0,0,1,131,69.5Z"/><path d="M104.39,32.61c.06.06.12.12.18.19a3.437,3.437,0,0,0-.27-.27Z"/><circle class="e" cx="121" cy="32" r="12"/><g class="f"><path class="g" d="M131,69.5a5.5,5.5,0,0,1-5.5,5.5h-25A5.5,5.5,0,0,1,95,69.5V62.78L82.03,75.75,98.89,92.61A5.5,5.5,0,0,1,95,102H69.5a5.5,5.5,0,0,1,0-11H81.72L70.61,79.89a5.2,5.2,0,0,1-.73-.91l-2.04-2.04L36.39,108.39a5.5,5.5,0,0,1-7.78-7.78L92.72,36.5,86,29.78,71.39,44.39a5.5,5.5,0,0,1-7.78-7.78l18.5-18.5a5.5,5.5,0,0,1,7.78,0L104.3,32.53a3.437,3.437,0,0,1,.27.27,4.136,4.136,0,0,1,.37.46,4.585,4.585,0,0,1,.33.52c.02.01.02.01.01.02a2.211,2.211,0,0,1,.18.34c.06.12.11.24.16.37a4.217,4.217,0,0,1,.28.98,2.629,2.629,0,0,1,.06.39,5.07,5.07,0,0,1,.04.68V64h19.5A5.5,5.5,0,0,1,131,69.5Z"/><path class="g" d="M104.39,32.61c.06.06.12.12.18.19a3.437,3.437,0,0,0-.27-.27Z"/><circle class="g" cx="120" cy="27" r="12"/></g></svg>